<?xml version="1.0" encoding="iso-8859-1"?>
<!-- Uploaded to: SVG Repo, www.svgrepo.com, Generator: SVG Repo Mixer Tools -->
<svg fill="#000000" height="800px" width="800px" version="1.1" id="Layer_1" xmlns="http://www.w3.org/2000/svg" xmlns:xlink="http://www.w3.org/1999/xlink" 
	 viewBox="0 0 512.001 512.001" xml:space="preserve">
<g>
	<g>
		<path d="M316.899,269.334c-6.948-3.152-15.202-9.228-22.645-16.67c-7.341-7.341-13.377-15.505-16.558-22.398
			c-1.907-4.132-6.803-5.935-10.934-4.028s-5.935,6.803-4.028,10.935c4.023,8.715,11.078,18.356,19.868,27.144
			c8.917,8.917,18.681,16.029,27.49,20.026c1.104,0.501,2.261,0.737,3.398,0.737c3.136-0.001,6.131-1.8,7.51-4.839
			C322.879,276.096,321.044,271.213,316.899,269.334z"/>
	</g>
</g>
<g>
	<g>
		<path d="M210.96,288.871c-6.949-3.154-15.203-9.23-22.645-16.672c-7.341-7.341-13.375-15.505-16.558-22.399
			c-1.908-4.13-6.803-5.934-10.934-4.028c-4.132,1.908-5.935,6.803-4.028,10.934c4.024,8.719,11.08,18.358,19.868,27.147
			c8.917,8.917,18.679,16.028,27.49,20.026c1.104,0.501,2.261,0.737,3.4,0.737c3.134,0,6.129-1.797,7.508-4.838
			C216.941,295.635,215.105,290.751,210.96,288.871z"/>
	</g>
</g>
<g>
	<g>
		<path d="M198.697,387.793c-5.099-2.459-11.246-7.09-16.862-12.708c-5.542-5.542-10.143-11.622-12.623-16.685
			c-2.002-4.086-6.938-5.777-11.024-3.773c-4.086,2.001-5.776,6.937-3.774,11.024c3.295,6.725,8.895,14.213,15.768,21.087
			c6.974,6.974,14.56,12.621,21.357,15.899c1.154,0.556,2.373,0.821,3.573,0.821c3.065,0,6.007-1.717,7.428-4.663
			C204.518,394.695,202.796,389.77,198.697,387.793z"/>
	</g>
</g>
<g>
	<g>
		<path d="M106.456,416.933c-5.101-2.46-11.247-7.092-16.864-12.708c-5.542-5.542-10.143-11.624-12.623-16.685
			c-2.004-4.088-6.941-5.777-11.026-3.775c-4.086,2.002-5.776,6.938-3.773,11.024c3.295,6.725,8.895,14.214,15.768,21.087
			c6.974,6.974,14.557,12.62,21.357,15.899c1.154,0.556,2.373,0.821,3.574,0.821c3.064,0,6.007-1.717,7.428-4.662
			C112.275,423.836,110.555,418.911,106.456,416.933z"/>
	</g>
</g>
<g>
	<g>
		<path d="M301.381,352.683c-3.285-3.144-8.502-3.026-11.646,0.266c-35.028,36.668-80.68,73.033-125.254,99.774
			c-45.452,27.268-85.565,42.458-112.951,42.771c-12.059,0.137-21.025-2.667-26.694-8.336
			c-21.541-21.541-0.221-90.161,51.844-166.869c2.556-3.765,1.575-8.889-2.19-11.445c-3.764-2.556-8.888-1.575-11.445,2.19
			C16.596,379.467-20.894,464.733,13.183,498.81c8.74,8.74,21.354,13.168,37.51,13.168c0.339,0,0.682-0.003,1.024-0.006
			c30.263-0.346,73.32-16.37,121.239-45.117c46.456-27.87,92.16-64.28,128.692-102.523
			C304.79,361.042,304.671,355.827,301.381,352.683z"/>
	</g>
</g>
<g>
	<g>
		<path d="M451.68,134.461c12.841-12.912,19.838-27.76,20.226-42.956c0.356-13.914-4.846-26.972-14.646-36.772
			c-18.387-18.387-51.65-22.345-79.728,5.582c-0.06-21.369-7.832-39.099-21.909-49.938c-12.21-9.401-28.411-12.656-43.337-8.711
			c-4.4,1.164-7.023,5.673-5.86,10.072c1.162,4.399,5.672,7.024,10.072,5.86c10.017-2.649,20.884-0.468,29.07,5.835
			c9.988,7.691,15.49,20.877,15.49,37.126c0,5.929-0.152,11.907-0.451,17.81c-10.557,12.057-19.761,24.227-27.266,36.008V59.911
			c0-4.551-3.689-8.239-8.239-8.239c-4.551,0-8.239,3.689-8.239,8.239v79.551c-5.999-2.458-12.361-4.077-19.061-4.875
			c-5.596-21.162-8.654-47.189-8.654-74.028c0-7.034,1.014-13.505,3.015-19.238c1.5-4.297-0.768-8.994-5.065-10.494
			c-4.295-1.5-8.996,0.768-10.494,5.065c-2.613,7.482-3.937,15.783-3.937,24.67c0,26.359,2.845,52.086,8.073,73.729
			c-28.381,2.203-60.827,17.167-96.513,44.536c-32.333,24.797-65.496,58.516-95.904,97.512c-2.798,3.588-2.157,8.766,1.431,11.564
			s8.765,2.157,11.564-1.431c63.744-81.748,134.052-133.831,183.484-135.927c2.098-0.089,4.146-0.077,6.156,0.007
			c0.029,0.001,0.057,0.01,0.086,0.011c10.421,0.473,19.909,3.392,28.202,8.675c0.001,0.001,0.003,0.001,0.003,0.003
			c0.003,0.001,0.004,0.003,0.005,0.003c0.01,0.006,0.019,0.01,0.029,0.015c2.106,1.346,4.154,2.851,6.13,4.506
			c0.044,0.037,0.089,0.073,0.133,0.111c0.488,0.411,0.973,0.832,1.453,1.261c0.563,0.508,1.124,1.027,1.677,1.562
			c0.231,0.223,0.458,0.45,0.688,0.677c0.674,0.671,1.345,1.351,2.004,2.062c1.779,1.922,3.609,3.822,5.473,5.687
			c0.004,0.004,0.008,0.01,0.012,0.014c0.006,0.005,0.01,0.008,0.015,0.014c1.864,1.863,3.762,3.692,5.686,5.473
			c0.513,0.475,1.014,0.955,1.507,1.439c0.167,0.165,0.327,0.333,0.491,0.498c0.32,0.322,0.642,0.643,0.952,0.969
			c0.165,0.173,0.322,0.35,0.486,0.524c0.307,0.329,0.617,0.659,0.915,0.992c0.082,0.091,0.159,0.185,0.241,0.277
			c2.411,2.732,4.514,5.606,6.317,8.617c0.201,0.333,0.4,0.667,0.594,1.005c4.136,7.247,6.548,15.281,7.227,24.062
			c0.014,0.185,0.029,0.372,0.042,0.559c0.47,6.847-0.101,14.145-1.727,21.879c-4.932,23.457-19.702,51.258-42.714,80.399
			c-2.82,3.571-2.211,8.752,1.36,11.572c1.512,1.194,3.313,1.774,5.101,1.774c2.434,0,4.846-1.074,6.472-3.134
			c29.545-37.413,45.588-71.578,47.896-100.807c21.642,5.226,47.366,8.071,73.72,8.071c39.764,0,60.567-26.379,60.567-52.436
			C512.002,160.888,491.282,134.571,451.68,134.461z M356.431,171.138c-0.133-0.136-0.267-0.27-0.401-0.405
			c-0.518-0.515-1.045-1.025-1.58-1.533l66.27-66.27c3.219-3.217,3.219-8.435,0-11.653c-3.217-3.217-8.435-3.217-11.653,0
			l-66.274,66.274c-0.659-0.695-1.323-1.382-2-2.049c-0.417-0.411-0.84-0.805-1.261-1.204c-0.457-0.43-0.913-0.859-1.377-1.277
			c-0.574-0.519-1.154-1.027-1.738-1.526c-0.255-0.216-0.511-0.428-0.767-0.639c-0.703-0.584-1.409-1.164-2.125-1.719
			c7.548-18.362,22.309-40.563,41.311-61.952c0.025-0.029,0.043-0.062,0.068-0.091c4.479-5.041,9.192-10.046,14.105-14.958
			c21.421-21.418,44.354-17.994,56.6-5.748c6.574,6.574,10.063,15.344,9.823,24.699c-0.279,10.961-5.665,21.992-15.574,31.901
			c-4.912,4.912-9.917,9.627-14.96,14.106c-0.028,0.025-0.061,0.042-0.089,0.066c-21.385,18.999-43.584,33.758-61.944,41.308
			C360.91,175.94,358.765,173.496,356.431,171.138z M451.435,222.848c-26.827,0-52.843-3.055-74.002-8.648
			c-0.797-6.684-2.424-13.049-4.893-19.068h79.543c4.551,0,8.239-3.689,8.239-8.239c0-4.551-3.689-8.239-8.239-8.239h-54.466
			c11.781-7.504,23.951-16.709,36.008-27.266c5.909-0.299,11.888-0.452,17.81-0.452c30.292,0,44.088,18.639,44.088,35.956
			C495.523,204.208,481.727,222.848,451.435,222.848z"/>
	</g>
</g>
</svg>