<?xml version="1.0" encoding="iso-8859-1"?>
<!-- Uploaded to: SVG Repo, www.svgrepo.com, Generator: SVG Repo Mixer Tools -->
<svg fill="#000000" height="800px" width="800px" version="1.1" id="Layer_1" xmlns="http://www.w3.org/2000/svg" xmlns:xlink="http://www.w3.org/1999/xlink" 
	 viewBox="0 0 513.164 513.164" xml:space="preserve">
<g>
	<g>
		<path d="M311.273,104.727l-5.818-4.655l9.309-26.764c0-3.491,0-6.982-2.327-9.309c-1.164-3.491-4.655-5.818-8.145-5.818
			l-36.073-4.655c2.327-10.473,11.636-18.618,23.273-18.618c6.982,0,11.636-4.655,11.636-11.636s-4.655-11.636-11.636-11.636
			c-8.146,0-16.291,2.327-23.273,6.982v-6.982C268.218,4.655,263.564,0,256.582,0s-11.636,4.655-11.636,11.636V51.2L211.2,46.545
			c-5.818-1.164-11.636,3.491-12.8,10.473c-1.164,5.818,3.491,11.636,10.473,12.8L288,79.127l-6.982,20.945
			c-1.164,4.655,0,10.473,4.655,12.8l12.8,9.309c60.509,45.382,144.291,105.891,144.291,180.364
			c0,62.836-52.364,115.2-136.145,136.145c-16.291,3.491-26.764,17.455-26.764,33.745v5.818l-16.291-11.636
			c-3.491-2.327-9.309-2.327-12.8,0l-16.291,11.636v-5.818c0-16.291-10.473-30.255-26.764-33.745
			C122.764,417.745,70.4,365.382,70.4,302.545c0-74.473,83.782-134.982,144.291-179.2l12.8-9.309
			c4.655-3.491,5.818-11.636,2.327-16.291s-11.636-5.818-16.291-2.327l-11.636,9.309C136.727,152.436,47.127,216.436,47.127,302.545
			c0,74.473,59.345,134.982,154.764,158.255c4.655,1.164,8.145,5.818,8.145,11.636v27.927c0,4.655,2.327,8.145,5.818,10.473
			c3.491,2.327,8.146,2.327,11.636,0l27.927-18.618l27.927,18.618c2.327,1.164,4.655,2.327,6.982,2.327c2.327,0,3.491,0,5.818-1.164
			c3.491-2.327,5.818-5.818,5.818-10.473V473.6c0-5.818,3.491-10.473,8.145-11.636c96.582-24.436,155.927-84.945,155.927-159.418
			C466.036,216.436,376.436,152.436,311.273,104.727z"/>
	</g>
</g>
<g>
	<g>
		<path d="M189.091,187.345c-5.818-3.491-12.8-1.164-16.291,4.655c-22.109,39.564-32.582,76.8-32.582,114.036
			c0,31.418,6.982,60.509,18.618,83.782c2.327,3.491,5.818,5.818,10.473,5.818c2.327,0,3.491,0,5.818-1.164
			c5.818-3.491,8.145-10.473,4.655-15.127c-10.473-20.945-16.291-45.382-16.291-73.309c0-32.582,9.309-66.327,30.255-102.4
			C196.073,197.818,194.909,190.836,189.091,187.345z"/>
	</g>
</g>
<g>
	<g>
		<path d="M340.364,192c-3.491-5.818-10.473-8.145-16.291-4.655c-5.818,3.491-8.145,10.473-4.655,16.291
			c19.782,36.073,29.091,68.655,29.091,102.4c0,26.764-5.818,52.364-16.291,73.309c-2.327,4.655,0,11.636,5.818,15.127
			c1.164,1.164,3.491,1.164,5.818,1.164c4.655,0,8.145-2.327,10.473-5.818c12.8-23.273,18.618-52.364,18.618-83.782
			C372.945,268.8,362.473,231.564,340.364,192z"/>
	</g>
</g>
<g>
	<g>
		<path d="M256.582,349.091c-6.982,0-11.636,4.655-11.636,11.636v58.182c0,6.982,4.655,11.636,11.636,11.636
			s11.636-4.655,11.636-11.636v-58.182C268.218,353.745,263.564,349.091,256.582,349.091z"/>
	</g>
</g>
<g>
	<g>
		<path d="M256.582,151.273c-6.982,0-11.636,4.655-11.636,11.636v151.273c0,6.982,4.655,11.636,11.636,11.636
			s11.636-4.655,11.636-11.636V162.909C268.218,155.927,263.564,151.273,256.582,151.273z"/>
	</g>
</g>
</svg>