<?xml version="1.0" encoding="iso-8859-1"?>
<!-- Uploaded to: SVG Repo, www.svgrepo.com, Generator: SVG Repo Mixer Tools -->
<svg fill="#000000" height="800px" width="800px" version="1.1" id="Layer_1" xmlns="http://www.w3.org/2000/svg" xmlns:xlink="http://www.w3.org/1999/xlink" 
	 viewBox="0 0 511.999 511.999" xml:space="preserve">
<g>
	<g>
		<path d="M405.046,168.384c14.921-18.201,19.511-40.896,11.221-60.114c-6.598-15.285-20.121-26.271-38.078-30.933
			c-16.79-4.358-35.655-2.604-53.116,4.938c-13.154,5.677-31.709,17.333-48.944,31.717c0.198-22.453-2.548-44.19-6.492-57.959
			c-5.237-18.291-15.836-33.995-29.846-44.218c-14.986-10.938-32.057-14.433-48.06-9.849c-20.116,5.761-34.76,23.697-39.382,46.778
			c-23.218-3.818-45.175,3.55-57.676,20.336c-19.753,26.546-9.396,67.812,23.089,91.988c11.487,8.55,30.856,18.789,51.936,26.523
			c-19.548,11.055-36.996,24.302-46.94,34.599c-13.221,13.682-21.522,30.714-23.372,47.958
			c-1.982,18.449,3.523,34.977,15.494,46.536c15.049,14.551,37.909,18.268,60.21,10.729c8.306,22.024,25.668,37.348,46.457,39.774
			c1.921,0.224,3.832,0.333,5.731,0.333c30.607-0.003,57.952-28.454,62.369-66.313c1.298-11.104,1.075-26.896-0.909-43.822
			c6.741,8.846,13.923,19.237,20.86,31.032c31.903,54.234,44.266,111.602,36.746,170.509c-0.9,7.055,4.089,13.502,11.141,14.403
			c0.555,0.071,1.102,0.106,1.647,0.106c6.384,0,11.927-4.747,12.756-11.247c11.091-86.892-19.364-156.435-49.17-201.568
			c6.395,2.497,12.305,4.436,17.368,5.698c39.28,9.804,77.765-8.331,85.786-40.435C430.931,205.581,422.716,183.93,405.046,168.384z
			 M400.888,219.645c-4.5,18.013-29.487,27.942-54.565,21.684c-11.689-2.915-22.925-8.029-33.619-13.486
			c-12.725-6.492-25.09-13.995-36.208-22.995c-2.486-2.013-4.763-4.119-7.991-4.782c-2.56-0.525-5.248-0.189-7.644,0.832
			c-4.992,2.128-8.461,7.149-8.051,12.651c0.242,3.246,1.791,6.411,2.739,9.5c2.076,6.759,3.7,13.655,5.016,20.599
			c2.529,13.342,4.042,26.966,4.143,40.553c0.035,4.677-0.095,9.372-0.639,14.021c-2.996,25.667-21.124,45.533-39.541,43.388
			c-13.905-1.622-25.237-15.367-28.198-34.201c-0.663-4.208-3.362-7.814-7.212-9.636c-1.747-0.828-3.63-1.237-5.508-1.237
			c-2.258,0-4.51,0.594-6.516,1.77c-16.444,9.648-34.255,9.593-44.323-0.14c-6.133-5.922-8.896-14.895-7.783-25.268
			c1.244-11.577,7.028-23.229,16.291-32.815c13.158-13.625,43.508-34.082,69.597-43.375c5.495-1.958,8.987-7.365,8.512-13.18
			c-0.476-5.815-4.801-10.583-10.543-11.62c-27.244-4.926-60.51-20.184-75.709-31.496c-20.737-15.433-28.891-41.059-17.807-55.952
			c8.36-11.229,25.932-14.169,43.72-7.316c3.975,1.531,8.449,0.997,11.951-1.424c3.504-2.422,5.582-6.42,5.553-10.679
			c-0.133-19.067,8.817-34.464,22.269-38.316c8.198-2.354,17.361-0.258,25.788,5.893c9.405,6.863,16.603,17.697,20.271,30.507
			c5.22,18.223,7.76,54.746,2.764,81.97c-1.052,5.739,1.884,11.467,7.159,13.963c5.274,2.494,11.566,1.132,15.334-3.321
			c17.876-21.12,47.73-42.302,65.143-49.817c12.228-5.283,25.166-6.58,36.436-3.654c10.1,2.623,17.524,8.38,20.904,16.211
			c5.546,12.853-0.691,29.535-15.519,41.51c-3.312,2.677-5.087,6.817-4.742,11.06c0.345,4.244,2.766,8.044,6.468,10.149
			C395.406,190.619,404.27,206.074,400.888,219.645z"/>
	</g>
</g>
<g>
	<g>
		<path d="M356.068,480.809c-6.905-1.707-13.884,2.5-15.593,9.404c-0.457,1.848-0.936,3.702-1.436,5.564
			c-1.846,6.867,2.224,13.93,9.092,15.777c1.12,0.301,2.244,0.445,3.352,0.445c5.681,0,10.881-3.788,12.427-9.536
			c0.546-2.029,1.066-4.049,1.564-6.062C367.181,489.499,362.969,482.517,356.068,480.809z"/>
	</g>
</g>
</svg>